<svg width="116" height="52" viewBox="0 0 116 52" fill="none" xmlns="http://www.w3.org/2000/svg">
<path d="M108.016 22.2471C108.016 9.96037 98.173 0 86.0309 0C73.8888 0 64.0457 9.96037 64.0457 22.2471C64.0457 34.5338 73.8888 44.4942 86.0309 44.4942C98.173 44.4942 108.016 34.5338 108.016 22.2471Z" fill="url(#paint0_linear_1_3)"/>
<mask id="mask0_1_3" style="mask-type:luminance" maskUnits="userSpaceOnUse" x="64" y="0" width="45" height="45">
<path d="M108.016 22.2471C108.016 9.96037 98.173 0 86.0309 0C73.8888 0 64.0457 9.96037 64.0457 22.2471C64.0457 34.5338 73.8888 44.4942 86.0309 44.4942C98.173 44.4942 108.016 34.5338 108.016 22.2471Z" fill="white"/>
</mask>
<g mask="url(#mask0_1_3)">
<path d="M116 24.5852L114.762 51.8444L94.9981 52L70.8804 26.5262L99.3685 7.72281C99.3685 7.72281 113.41 21.94 116 24.5852Z" fill="url(#paint1_linear_1_3)"/>
</g>
<g filter="url(#filter0_d_1_3)">
<path d="M70.8804 11.0887C73.6887 7.19458 81.5513 5.33554 86.0592 7.72281V41.9186C83.7729 24.876 75.3155 23.8318 70.8804 26.4525V11.0887Z" fill="#DEBDDB"/>
<path d="M101.242 11.3017C98.4337 7.40751 90.5712 5.33554 86.0632 7.72281V41.9186C88.3496 24.876 96.807 24.0447 101.242 26.6613V11.3017Z" fill="#AFB436"/>
<path d="M72.7539 7.72281C77.1081 5.06119 81.5512 5.33554 86.0632 7.72281V41.9186C83.7769 24.876 77.189 20.4659 72.7539 23.0865V7.72281Z" fill="#F2E4F0"/>
<path d="M99.3685 7.72281C95.0143 5.06119 90.5712 5.33554 86.0592 7.72281V41.9186C88.3455 24.876 94.9334 20.4659 99.3685 23.0865V7.72281Z" fill="#DBE578"/>
<path d="M86.0592 41.9186C86.7476 41.9186 87.3056 41.3539 87.3056 40.6574C87.3056 39.9608 86.7476 39.3962 86.0592 39.3962C85.3709 39.3962 84.8129 39.9608 84.8129 40.6574C84.8129 41.3539 85.3709 41.9186 86.0592 41.9186Z" fill="#EF5451"/>
</g>
<path d="M0 38.1677C0 37.9098 0.153771 37.7787 0.46536 37.7787H1.04402C1.64697 37.7787 2.1447 37.7501 2.52913 37.6968C2.91356 37.6395 3.22515 37.5208 3.46389 37.3365C3.70264 37.1522 3.86856 36.8779 3.95758 36.5175C4.05065 36.1572 4.09517 35.6699 4.09517 35.0598V22.7467C4.09517 22.5993 4.13968 22.4723 4.23275 22.37C4.32582 22.2676 4.44317 22.2184 4.58885 22.2184H5.93637C6.06586 22.2184 6.17512 22.2676 6.26415 22.37C6.35722 22.4723 6.40173 22.5952 6.40173 22.7467V31.0591H8.93086V33.4505H6.37745V35.2277C6.37745 35.8214 6.34103 36.366 6.26819 36.8697C6.19535 37.3692 6.05777 37.8033 5.85544 38.1759C5.4872 38.8229 4.98137 39.2774 4.32987 39.5395C3.67836 39.7975 2.82453 39.9285 1.76027 39.9285C1.6672 39.9285 1.47296 39.9203 1.16947 39.8998C0.865974 39.8794 0.623177 39.8548 0.44108 39.8179C0.258983 39.7811 0.137585 39.7279 0.0849787 39.6664C0.0283262 39.6009 0.00404661 39.5026 0.00404661 39.3757V38.18L0 38.1677Z" fill="#3A3A3A"/>
<path d="M8.76497 33.4423C8.51003 33.4423 8.28747 33.4096 8.10537 33.344C7.92327 33.2785 7.8302 33.1802 7.8302 33.0533V31.4113C7.8302 31.3007 7.92327 31.2106 8.10537 31.1451C8.28747 31.0796 8.51003 31.0469 8.76497 31.0469H14.8349V33.4382H8.76497V33.4423Z" fill="#3A3A3A"/>
<path d="M13.7341 31.4113C13.7341 31.3007 13.8272 31.2106 14.0093 31.1451C14.1914 31.0796 14.414 31.0469 14.6689 31.0469H17.801V21.2889C17.801 21.1415 17.8495 21.0105 17.9507 20.8999C18.0519 20.7894 18.1733 20.732 18.323 20.732H19.5855C19.7312 20.732 19.8566 20.7853 19.9578 20.8958C20.059 21.0064 20.1075 21.1333 20.1075 21.2807V22.3781C20.585 22.0137 21.1151 21.7148 21.7019 21.4855C22.2887 21.2562 22.8633 21.0842 23.4338 20.9654C24.0004 20.8467 24.5345 20.7689 25.0282 20.732C25.5219 20.6952 25.9266 20.6788 26.2381 20.6788C27.4117 20.6788 28.4516 20.8098 29.3581 21.0678C30.2645 21.3258 31.0293 21.7434 31.6525 22.3167C32.2757 22.89 32.7451 23.6312 33.0688 24.5361C33.3885 25.4411 33.5504 26.5426 33.5504 27.8365V28.9585C33.5504 29.2247 33.5423 29.4908 33.522 29.7488C33.5018 30.0068 33.4775 30.2525 33.4411 30.4818C33.4047 30.7111 33.3602 30.9035 33.3035 31.051H35.5292V33.4423H14.677C14.4221 33.4423 14.1995 33.4096 14.0174 33.344C13.8353 33.2785 13.7422 33.1803 13.7422 33.0533V31.4113H13.7341ZM20.1075 31.051C20.5648 31.0714 21.0383 31.0796 21.5238 31.0796H30.5195C30.7744 31.0796 30.9605 30.9281 31.0698 30.621C31.179 30.3139 31.2357 29.671 31.2357 28.6882V28.1887C31.2357 27.1691 31.1224 26.3255 30.8917 25.6581C30.6611 24.9906 30.3171 24.4583 29.8599 24.0611C29.4026 23.6639 28.8239 23.3814 28.1279 23.2135C27.4319 23.0456 26.6185 22.9637 25.6838 22.9637C25.4086 22.9637 25.0363 22.9883 24.5709 23.0333C24.1056 23.0784 23.6038 23.1603 23.0737 23.2708C22.5436 23.3814 22.0094 23.537 21.4793 23.7294C20.9492 23.926 20.492 24.1799 20.1075 24.4952V31.055V31.051Z" fill="#3A3A3A"/>
<path d="M34.4244 31.4113C34.4244 31.3007 34.5175 31.2106 34.6996 31.1451C34.8817 31.0796 35.1043 31.0469 35.3592 31.0469H38.7098C38.3618 30.6578 38.0745 30.1501 37.8438 29.5195C37.6132 28.8889 37.4999 28.1027 37.4999 27.1568V26.4893C37.4999 24.618 38.0623 23.1521 39.1873 22.0956C40.3122 21.0391 41.8661 20.5109 43.8449 20.5109C44.6138 20.5109 45.3665 20.5437 46.0989 20.6092C46.8313 20.6747 47.4464 20.7812 47.9401 20.9286C48.1222 20.9654 48.2436 21.0228 48.2962 21.0965C48.3529 21.1702 48.3771 21.2807 48.3771 21.4281V29.7283C48.3771 30.0887 48.3731 30.4531 48.365 30.8134C48.3569 31.1738 48.3407 31.5219 48.3245 31.8576C48.3043 32.1893 48.2881 32.4964 48.2679 32.7749C48.2476 33.0902 48.0494 33.2662 47.6649 33.3031C46.8961 33.3768 46.1596 33.4177 45.4555 33.43C44.7514 33.4382 44.0311 33.4423 43.2986 33.4423H35.3592C35.1043 33.4423 34.8817 33.4096 34.6996 33.344C34.5175 33.2785 34.4244 33.1803 34.4244 33.0533V31.4113ZM39.8064 27.1568C39.8064 28.4344 40.0937 29.413 40.6724 30.0887C41.2511 30.7643 42.1494 31.1042 43.3796 31.1042C43.8004 31.1042 44.2577 31.1001 44.7514 31.0919C45.2451 31.0837 45.6861 31.0591 46.0706 31.0223V22.849C45.7023 22.7917 45.33 22.7549 44.9456 22.7385C44.5612 22.7221 44.1322 22.7098 43.6547 22.7098C42.3922 22.7098 41.4332 23.0333 40.7857 23.6844C40.1342 24.3314 39.8105 25.2896 39.8105 26.5467V27.1568H39.8064ZM39.8914 15.3719C39.8914 15.1877 39.9521 15.0402 40.0695 14.9256C40.1868 14.815 40.3406 14.7577 40.5227 14.7577H41.595C41.7771 14.7577 41.9309 14.815 42.0482 14.9256C42.1656 15.0361 42.2263 15.1836 42.2263 15.3719V16.8747C42.2263 17.0426 42.1616 17.1818 42.0321 17.2924C41.9026 17.4029 41.7569 17.4603 41.591 17.4603H40.5186C40.3365 17.4603 40.1828 17.4029 40.0654 17.2924C39.9481 17.1818 39.8874 17.0426 39.8874 16.8747V15.3719H39.8914ZM44.3669 15.3719C44.3669 15.1877 44.4357 15.0402 44.5733 14.9256C44.7109 14.8109 44.8606 14.7577 45.0265 14.7577H46.0989C46.2648 14.7577 46.4105 14.815 46.54 14.9256C46.6695 15.0361 46.7342 15.1836 46.7342 15.3719V16.8747C46.7342 17.0426 46.6695 17.1818 46.54 17.2924C46.4105 17.4029 46.2648 17.4603 46.0989 17.4603H45.0265C44.8606 17.4603 44.7109 17.4029 44.5733 17.2924C44.4357 17.1818 44.3669 17.0426 44.3669 16.8747V15.3719Z" fill="#3A3A3A"/>
<path d="M52.2255 11.9528C51.8977 11.9528 51.7318 11.8422 51.7318 11.6211V11.1502C51.7318 10.9659 51.8977 10.8717 52.2255 10.8717H52.6909C52.525 10.667 52.4076 10.4213 52.3348 10.1347C52.2619 9.84802 52.2255 9.56548 52.2255 9.28703C52.2255 8.50902 52.4481 7.93984 52.8972 7.5754C53.3464 7.21506 53.9817 7.03489 54.8072 7.03489C54.9529 7.03489 55.1188 7.04307 55.3009 7.06355C55.483 7.08402 55.6651 7.10859 55.8513 7.14545C56.0536 7.21915 56.1548 7.32971 56.1548 7.47712V7.86613C56.1548 8.07087 56.0374 8.17324 55.7987 8.17324C55.7622 8.17324 55.6327 8.16915 55.4142 8.16096C55.1957 8.15277 55.0379 8.14867 54.9489 8.14867C53.9777 8.14867 53.4921 8.56634 53.4921 9.40169C53.4921 9.79069 53.5568 10.1101 53.6863 10.3599C53.8158 10.6097 53.9534 10.7734 54.0991 10.8472H55.9403C56.2519 10.8472 56.4056 10.9577 56.4056 11.1788V11.6252C56.4056 11.7726 56.3652 11.8668 56.2802 11.9036C56.1993 11.9405 56.0819 11.9609 55.9362 11.9609H52.2255V11.9528ZM53.047 14.5652C53.047 14.4178 53.0955 14.2868 53.1967 14.1762C53.2979 14.0657 53.4192 14.0083 53.569 14.0083H54.9165C55.0622 14.0083 55.1836 14.0657 55.2726 14.1762C55.3657 14.2868 55.4102 14.4178 55.4102 14.5652V32.8854C55.4102 33.0328 55.3657 33.1639 55.2726 33.2744C55.1795 33.385 55.0622 33.4423 54.9165 33.4423H53.569C53.4233 33.4423 53.2979 33.385 53.1967 33.2744C53.0955 33.1639 53.047 33.0328 53.047 32.8854V14.5652Z" fill="#3A3A3A"/>
<defs>
<filter id="filter0_d_1_3" x="68.8604" y="3.80808" width="34.4017" height="40.1305" filterUnits="userSpaceOnUse" color-interpolation-filters="sRGB">
<feFlood flood-opacity="0" result="BackgroundImageFix"/>
<feColorMatrix in="SourceAlpha" type="matrix" values="0 0 0 0 0 0 0 0 0 0 0 0 0 0 0 0 0 0 127 0" result="hardAlpha"/>
<feOffset/>
<feGaussianBlur stdDeviation="1.01"/>
<feColorMatrix type="matrix" values="0 0 0 0 0 0 0 0 0 0 0 0 0 0 0 0 0 0 0.2 0"/>
<feBlend mode="normal" in2="BackgroundImageFix" result="effect1_dropShadow_1_3"/>
<feBlend mode="normal" in="SourceGraphic" in2="effect1_dropShadow_1_3" result="shape"/>
</filter>
<linearGradient id="paint0_linear_1_3" x1="71.4955" y1="7.53855" x2="100.616" y2="36.3201" gradientUnits="userSpaceOnUse">
<stop stop-color="#25988A"/>
<stop offset="0.6" stop-color="#249587"/>
<stop offset="0.94" stop-color="#228D81"/>
<stop offset="1" stop-color="#228B7F"/>
</linearGradient>
<linearGradient id="paint1_linear_1_3" x1="84.999" y1="17.5299" x2="108.096" y2="40.3552" gradientUnits="userSpaceOnUse">
<stop stop-color="#286E62"/>
<stop offset="0.41" stop-color="#20675B"/>
<stop offset="1" stop-color="#0D564A"/>
</linearGradient>
</defs>
</svg>
